<svg version="1.1" id="logomark" xmlns="http://www.w3.org/2000/svg" xmlns:xlink="http://www.w3.org/1999/xlink" x="0px" y="0px"
   viewBox="0 0 37.7 61.9" style="enable-background:new 0 0 37.7 61.9;" xml:space="preserve">
  <g>
    <path class="st0" d="M37.5,39.5L29,43.3c-0.3-1.4-1-2.7-2.2-4C25.6,38,24,37.1,22,36.5l-9.4-2.9C10.7,33,9,32.2,7.4,31.2
      c-1.5-1-2.9-2.2-4-3.6c-1.1-1.4-1.9-2.9-2.6-4.5C0.3,21.5,0,19.8,0,18.1c0-3,0.5-5.7,1.6-7.9C2.6,7.9,4,6,5.7,4.5
      C7.4,3,9.3,1.9,11.5,1.1C13.7,0.4,15.9,0,18.2,0c2.1,0,4.3,0.3,6.4,1c2.2,0.7,4.1,1.8,5.9,3.2c1.8,1.5,3.3,3.3,4.5,5.6
      c1.3,2.3,2.1,4.9,2.4,8l-8.3,1c-0.3-1.8-0.7-3.4-1.4-4.8c-0.7-1.4-1.5-2.5-2.6-3.3c-1-0.9-2.1-1.5-3.3-1.9
      c-1.2-0.4-2.4-0.6-3.7-0.6c-1.2,0-2.3,0.2-3.4,0.6c-1.1,0.4-2.1,0.9-2.9,1.7c-0.8,0.8-1.5,1.8-2,3c-0.5,1.2-0.8,2.6-0.8,4.3
      c0,1.6,0.6,3.1,1.8,4.4c1.2,1.4,2.7,2.3,4.6,2.9l10.1,3.1c3.1,0.9,5.7,2.3,7.7,4.3C35.4,34.6,36.8,36.9,37.5,39.5z"/>
    <path class="st0" d="M37.7,56c0,1.6-0.6,3-1.7,4.2s-2.5,1.7-4.1,1.7c-1.6,0-3-0.6-4.2-1.7S26,57.6,26,56c0-1.6,0.6-3,1.7-4.1
      c1.1-1.1,2.5-1.7,4.2-1.7c1.6,0,3,0.6,4.1,1.7C37.2,53,37.7,54.4,37.7,56z"/>
  </g>
</svg>
